{
	"asset":{
		"generator":"Khronos glTF Blender I/O v3.6.27",
		"version":"2.0"
	},
	"scene":0,
	"scenes":[
		{
			"name":"Scene",
			"nodes":[
				9
			]
		}
	],
	"nodes":[
		{
			"name":"Object_9"
		},
		{
			"children":[
				0
			],
			"name":"Camera",
			"rotation":[
				-0.21061135828495026,
				0.9052401185035706,
				-0.08928163349628448,
				0.35806697607040405
			],
			"scale":[
				100.00003051757812,
				99.99999237060547,
				100.0000228881836
			],
			"translation":[
				748.1130981445312,
				534.3665161132812,
				650.763916015625
			]
		},
		{
			"mesh":0,
			"name":"Earth_Surface.mat_0"
		},
		{
			"children":[
				2
			],
			"name":"Earth",
			"scale":[
				99.99999237060547,
				100,
				100
			]
		},
		{
			"name":"Object_5"
		},
		{
			"children":[
				4
			],
			"name":"Object_4",
			"rotation":[
				0.70710688829422,
				0,
				0,
				0.7071066498756409
			]
		},
		{
			"children":[
				5
			],
			"name":"Sun",
			"scale":[
				99.99999237060547,
				100,
				100
			]
		},
		{
			"children":[
				1,
				3,
				6
			],
			"name":"RootNode"
		},
		{
			"children":[
				7
			],
			"name":"5ca68536b7fb477299398f5db4f219ae.fbx.fbx",
			"rotation":[
				0.70710688829422,
				0,
				0,
				0.7071066498756409
			]
		},
		{
			"children":[
				8
			],
			"name":"Sketchfab_model",
			"rotation":[
				-0.70710688829422,
				0,
				0,
				0.7071066498756409
			],
			"scale":[
				6.318056693999097e-05,
				6.318057421594858e-05,
				6.318057421594858e-05
			]
		}
	],
	"materials":[
		{
			"doubleSided":true,
			"name":"Surface.mat",
			"normalTexture":{
				"index":0
			},
			"pbrMetallicRoughness":{
				"baseColorTexture":{
					"index":1
				},
				"metallicFactor":1,
				"roughnessFactor":1
			}
		}
	],
	"meshes":[
		{
			"name":"Earth_Surface.mat_0",
			"primitives":[
				{
					"attributes":{
						"POSITION":0,
						"NORMAL":1,
						"TEXCOORD_0":2,
						"TEXCOORD_1":3
					},
					"indices":4,
					"material":0
				}
			]
		}
	],
	"textures":[
		{
			"sampler":0,
			"source":0
		},
		{
			"sampler":0,
			"source":1
		}
	],
	"images":[
		{
			"mimeType":"image/png",
			"name":"Image_1",
			"uri":"../textures/Earth/Image_1.png"
		},
		{
			"mimeType":"image/jpeg",
			"name":"Image_0",
			"uri":"../textures/Earth/Image_0.jpg"
		}
	],
	"accessors":[
		{
			"bufferView":0,
			"componentType":5126,
			"count":3037,
			"max":[
				42.41783142089844,
				42.67764663696289,
				42.41783142089844
			],
			"min":[
				-42.41783142089844,
				-42.67764663696289,
				-42.41783142089844
			],
			"type":"VEC3"
		},
		{
			"bufferView":1,
			"componentType":5126,
			"count":3037,
			"type":"VEC3"
		},
		{
			"bufferView":2,
			"componentType":5126,
			"count":3037,
			"type":"VEC2"
		},
		{
			"bufferView":3,
			"componentType":5126,
			"count":3037,
			"type":"VEC2"
		},
		{
			"bufferView":4,
			"componentType":5123,
			"count":17280,
			"type":"SCALAR"
		}
	],
	"bufferViews":[
		{
			"buffer":0,
			"byteLength":36444,
			"byteOffset":0,
			"target":34962
		},
		{
			"buffer":0,
			"byteLength":36444,
			"byteOffset":36444,
			"target":34962
		},
		{
			"buffer":0,
			"byteLength":24296,
			"byteOffset":72888,
			"target":34962
		},
		{
			"buffer":0,
			"byteLength":24296,
			"byteOffset":97184,
			"target":34962
		},
		{
			"buffer":0,
			"byteLength":34560,
			"byteOffset":121480,
			"target":34963
		}
	],
	"samplers":[
		{
			"magFilter":9729,
			"minFilter":9987
		}
	],
	"buffers":[
		{
			"byteLength":156040,
			"uri":"earth.bin"
		}
	]
}
