{
	"asset":{
		"generator":"Khronos glTF Blender I/O v3.6.27",
		"version":"2.0"
	},
	"scene":0,
	"scenes":[
		{
			"name":"Scene",
			"nodes":[
				4
			]
		}
	],
	"nodes":[
		{
			"mesh":0,
			"name":"Sphere_Material_0"
		},
		{
			"children":[
				0
			],
			"name":"Sphere",
			"rotation":[
				-0.70710688829422,
				0,
				0,
				0.7071066498756409
			],
			"scale":[
				101,
				100.99998474121094,
				100.99998474121094
			]
		},
		{
			"children":[
				1
			],
			"name":"RootNode"
		},
		{
			"children":[
				2
			],
			"name":"164f3ef3a5354d2d99363d985d381246.fbx",
			"rotation":[
				0.70710688829422,
				0,
				0,
				0.7071066498756409
			],
			"scale":[
				0.009999999776482582,
				0.010000000707805157,
				0.010000000707805157
			]
		},
		{
			"children":[
				3
			],
			"name":"Sketchfab_model",
			"rotation":[
				-0.70710688829422,
				0,
				0,
				0.7071066498756409
			]
		}
	],
	"materials":[
		{
			"doubleSided":true,
			"name":"Material.001",
			"pbrMetallicRoughness":{
				"baseColorTexture":{
					"index":0
				},
				"metallicFactor":0
			}
		}
	],
	"meshes":[
		{
			"name":"Sphere_Material_0",
			"primitives":[
				{
					"attributes":{
						"POSITION":0,
						"NORMAL":1,
						"TEXCOORD_0":2
					},
					"indices":3,
					"material":0
				}
			]
		}
	],
	"textures":[
		{
			"sampler":0,
			"source":0
		}
	],
	"images":[
		{
			"mimeType":"image/jpeg",
			"name":"Image_0",
			"uri":"../textures/Jupiter/Image_0.jpg"
		}
	],
	"accessors":[
		{
			"bufferView":0,
			"componentType":5126,
			"count":8459,
			"max":[
				128.55795288085938,
				128.55796813964844,
				128.55796813964844
			],
			"min":[
				-128.5579071044922,
				-128.55792236328125,
				-128.55796813964844
			],
			"type":"VEC3"
		},
		{
			"bufferView":1,
			"componentType":5126,
			"count":8459,
			"type":"VEC3"
		},
		{
			"bufferView":2,
			"componentType":5126,
			"count":8459,
			"type":"VEC2"
		},
		{
			"bufferView":3,
			"componentType":5123,
			"count":47958,
			"type":"SCALAR"
		}
	],
	"bufferViews":[
		{
			"buffer":0,
			"byteLength":101508,
			"byteOffset":0,
			"target":34962
		},
		{
			"buffer":0,
			"byteLength":101508,
			"byteOffset":101508,
			"target":34962
		},
		{
			"buffer":0,
			"byteLength":67672,
			"byteOffset":203016,
			"target":34962
		},
		{
			"buffer":0,
			"byteLength":95916,
			"byteOffset":270688,
			"target":34963
		}
	],
	"samplers":[
		{
			"magFilter":9729,
			"minFilter":9987
		}
	],
	"buffers":[
		{
			"byteLength":366604,
			"uri":"jupiter.bin"
		}
	]
}
