{
	"asset":{
		"generator":"Khronos glTF Blender I/O v3.6.27",
		"version":"2.0"
	},
	"scene":0,
	"scenes":[
		{
			"name":"Scene",
			"nodes":[
				4
			]
		}
	],
	"nodes":[
		{
			"mesh":0,
			"name":"pSphere1_lambert3_0"
		},
		{
			"children":[
				0
			],
			"name":"pSphere1",
			"scale":[
				7.3374481201171875,
				7.3374481201171875,
				7.3374481201171875
			]
		},
		{
			"children":[
				1
			],
			"name":"RootNode"
		},
		{
			"children":[
				2
			],
			"name":"bb9595e115604d53ae421356c9daac6d.fbx",
			"rotation":[
				0.70710688829422,
				0,
				0,
				0.7071066498756409
			]
		},
		{
			"children":[
				3
			],
			"name":"Sketchfab_model",
			"rotation":[
				-0.70710688829422,
				0,
				0,
				0.7071066498756409
			]
		}
	],
	"materials":[
		{
			"doubleSided":true,
			"name":"lambert3",
			"pbrMetallicRoughness":{
				"baseColorTexture":{
					"index":0
				},
				"metallicFactor":0,
				"roughnessFactor":0.5671661496162415
			}
		}
	],
	"meshes":[
		{
			"name":"pSphere1_lambert3_0",
			"primitives":[
				{
					"attributes":{
						"POSITION":0,
						"NORMAL":1,
						"TEXCOORD_0":2
					},
					"indices":3,
					"material":0
				}
			]
		}
	],
	"textures":[
		{
			"sampler":0,
			"source":0
		}
	],
	"images":[
		{
			"mimeType":"image/jpeg",
			"name":"Image_0",
			"uri":"../textures/Mars/Image_0.jpg"
		}
	],
	"accessors":[
		{
			"bufferView":0,
			"componentType":5126,
			"count":25425,
			"max":[
				0.9799657464027405,
				0.998112142086029,
				0.9799658060073853
			],
			"min":[
				-0.9799658060073853,
				-0.998112142086029,
				-0.9799659848213196
			],
			"type":"VEC3"
		},
		{
			"bufferView":1,
			"componentType":5126,
			"count":25425,
			"type":"VEC3"
		},
		{
			"bufferView":2,
			"componentType":5126,
			"count":25425,
			"type":"VEC2"
		},
		{
			"bufferView":3,
			"componentType":5123,
			"count":149760,
			"type":"SCALAR"
		}
	],
	"bufferViews":[
		{
			"buffer":0,
			"byteLength":305100,
			"byteOffset":0,
			"target":34962
		},
		{
			"buffer":0,
			"byteLength":305100,
			"byteOffset":305100,
			"target":34962
		},
		{
			"buffer":0,
			"byteLength":203400,
			"byteOffset":610200,
			"target":34962
		},
		{
			"buffer":0,
			"byteLength":299520,
			"byteOffset":813600,
			"target":34963
		}
	],
	"samplers":[
		{
			"magFilter":9729,
			"minFilter":9987
		}
	],
	"buffers":[
		{
			"byteLength":1113120,
			"uri":"mars.bin"
		}
	]
}
